# xmcd
#
# Track frame offsets:
#	150
#	18545
#	35975
#	51905
#	68185
#	90102
#	106377
#	124857
#	140327
#	153370
#	167995
#	185390
#	202875
#	218832
#	234870
#	251237
#	267235
#	286247
#
# Disc length: 4076 seconds
#
# Revision: 0
# Processed by: cddbd v1.5PL3 Copyright (c) Steve Scherf et al.
# Submitted via: audiograbber 1.83.01
#
DISCID=020fea12
DTITLE=Shania Twain - The Best Of
DYEAR=1900
DGENRE=Country
TTITLE0=Any Man Of Mine
TTITLE1=God Bless The Child
TTITLE2=You Are Still The One
TTITLE3=When
TTITLE4=From This Moment On
TTITLE5=Black Eyes Blue Jeans
TTITLE6=I Won't Leave You Lonely
TTITLE7=I Am Holdin' On To Love
TTITLE8=Come On Over
TTITLE9=You've Got A Way
TTITLE10=Whatever You Do! Don't!
TTITLE11=Man! I Feel Like A Woman
TTITLE12=Love Gets Me Every Time
TTITLE13=Don't Be Stupid
TTITLE14=That Don't Impress Me Much
TTITLE15=Honey, I'm Home
TTITLE16=If You Wanna Touch Her, Ask!
TTITLE17=Rock This Country
EXTD=
EXTT0=
EXTT1=
EXTT2=
EXTT3=
EXTT4=
EXTT5=
EXTT6=
EXTT7=
EXTT8=
EXTT9=
EXTT10=
EXTT11=
EXTT12=
EXTT13=
EXTT14=
EXTT15=
EXTT16=
EXTT17=
PLAYORDER=
